<svg width="1019" height="1129" viewBox="0 0 1019 1129" fill="none" xmlns="http://www.w3.org/2000/svg">
<path opacity="0.5" d="M318.635 54.6942C198.697 155.217 180.111 345.298 98.8809 485.527C70.6041 534.322 34.0667 577.992 15.0036 632.123C-28.7619 756.026 31.472 896.572 112.093 994.981C150.536 1041.93 195.44 1084.94 249.77 1104.72C291.55 1119.94 336.348 1120.57 380.325 1120.97L1150.79 1128.9C1236.81 1129.77 1332.39 1126.62 1394.24 1060.21C1436.87 1014.48 1454.18 947.692 1468.88 883.944C1486.93 805.613 1503.3 720.546 1475.2 645.94C1443.11 560.582 1361.96 512.21 1311.55 438.555C1229.74 319.223 1231.62 138.731 1127.44 43.4664C1078.8 -0.995926 1014.62 -18.4321 952.083 -27.1502C834.184 -43.6089 722.506 -12.5408 606.725 -16.8734C507.756 -20.572 400.739 -14.1259 318.635 54.6942Z" fill="#E7ECFF"/>
<path opacity="0.24" d="M560.078 950.613C513.629 955.283 465.755 960.419 424.881 983.264C419.41 986.328 413.856 989.942 410.837 995.458C404.78 1006.55 411.655 1021.18 422.324 1027.86C432.993 1034.53 446.156 1035.29 458.712 1035.84C682.279 1045.59 906.181 1041.76 1129.94 1037.96C1194.92 1036.86 1260.92 1035.59 1323.19 1016.72C1334.39 1013.34 1346.69 1008.26 1350.9 997.212C1356.42 982.757 1343.84 966.737 1329.17 962.236C1314.5 957.735 1298.84 961.095 1283.66 963.06C1230.97 969.886 1177.81 959.446 1125.35 951.099C1022.64 934.784 916.075 921.512 812.047 919.039C776.581 918.215 746.293 930.515 711.582 935.376C661.465 942.434 610.467 945.541 560.078 950.613Z" fill="#505F98"/>
<path d="M377.369 517.326L493.198 281.408L562.185 315.19L446.355 551.108L377.369 517.326Z" fill="white"/>
<path d="M404.214 510.055L418.327 481.22L464.792 503.903L450.678 532.738L404.214 510.055Z" fill="#505F98"/>
<path d="M404.214 510.055L418.327 481.22L464.792 503.903L450.678 532.738L404.214 510.055Z" fill="url(#paint0_linear_0_29)"/>
<path d="M418.329 481.445L432.443 452.61L478.907 475.293L464.794 504.128L418.329 481.445Z" fill="#505F98"/>
<path d="M418.329 481.445L432.443 452.61L478.907 475.293L464.794 504.128L418.329 481.445Z" fill="url(#paint1_linear_0_29)"/>
<path d="M432.426 452.826L446.54 423.991L493.004 446.674L478.89 475.509L432.426 452.826Z" fill="#505F98"/>
<path d="M432.426 452.826L446.54 423.991L493.004 446.674L478.89 475.509L432.426 452.826Z" fill="url(#paint2_linear_0_29)"/>
<path d="M446.563 424.237L460.676 395.402L507.14 418.085L493.027 446.92L446.563 424.237Z" fill="#505F98"/>
<path d="M446.563 424.237L460.676 395.402L507.14 418.085L493.027 446.92L446.563 424.237Z" fill="url(#paint3_linear_0_29)"/>
<path d="M460.668 395.599L474.782 366.764L521.246 389.447L507.133 418.282L460.668 395.599Z" fill="#505F98"/>
<path d="M474.784 367.01L488.897 338.175L535.362 360.858L521.248 389.693L474.784 367.01Z" fill="#505F98"/>
<path d="M488.881 338.391L502.994 309.556L549.458 332.239L535.345 361.074L488.881 338.391Z" fill="#505F98"/>
<path d="M473.196 370.598L487.309 341.763L533.774 364.446L519.66 393.281L473.196 370.598Z" fill="url(#paint4_linear_0_29)"/>
<path d="M487.321 341.97L501.434 313.135L547.898 335.817L533.785 364.652L487.321 341.97Z" fill="url(#paint5_linear_0_29)"/>
<rect x="787.837" y="835" width="98.0679" height="82" fill="#505F98"/>
<rect x="787.837" y="835" width="98.0679" height="82" fill="url(#paint6_linear_0_29)"/>
<rect x="579.693" y="493" width="518.359" height="355" rx="9.37" fill="#505F98"/>
<path opacity="0.65" d="M1081.04 522.438V816.562C1081.06 821.443 1079.13 826.129 1075.69 829.588C1072.25 833.047 1067.58 834.994 1062.7 835H611.039C606.165 834.989 601.494 833.04 598.056 829.582C594.617 826.125 592.691 821.441 592.702 816.562V522.438C592.691 517.559 594.617 512.875 598.056 509.418C601.494 505.96 606.165 504.011 611.039 504H1062.7C1067.58 504.006 1072.25 505.953 1075.69 509.412C1079.13 512.871 1081.06 517.557 1081.04 522.438V522.438Z" fill="url(#paint7_linear_0_29)"/>
<rect x="742.806" y="907" width="206.143" height="21" fill="#505F98"/>
<rect x="787.837" y="895" width="98.0679" height="12" fill="url(#paint8_linear_0_29)"/>
<path fill-rule="evenodd" clip-rule="evenodd" d="M942.945 321.241V341.715L930.235 341.819C928.999 351.346 925.375 360.41 919.697 368.181L930.552 379.351L915.672 393.6L904.986 382.578C898.397 387.062 890.962 390.17 883.13 391.714V405H862.559V392.029C853.774 390.76 845.402 387.497 838.089 382.494L829.153 391.316L814.589 376.647L823.462 367.993C817.876 360.219 814.313 351.191 813.092 341.715H798.845V321.241H813.598C815.427 313.093 819.024 305.441 824.137 298.819L815.896 290.332L830.776 276.082L839.206 284.82C846.176 280.214 854.1 277.228 862.39 276.082V262H882.961V276.396C891.33 278.055 899.239 281.493 906.145 286.476L916.683 276.166L931.163 290.709L920.625 301.187C924.756 307.267 927.689 314.073 929.266 321.241H942.945ZM836.804 334.15C836.78 353.211 852.303 368.682 871.474 368.705C880.686 368.733 889.529 365.113 896.051 358.644C902.572 352.176 906.235 343.392 906.229 334.233C906.253 315.172 890.73 299.701 871.559 299.678C852.387 299.655 836.827 315.088 836.804 334.15Z" fill="#505F98"/>
<path fill-rule="evenodd" clip-rule="evenodd" d="M1019 355.354L1018.08 367.396L1010.57 366.938C1009.44 372.475 1006.94 377.641 1003.28 381.958L1009.15 389.021L999.798 396.729L994.039 389.792C989.984 392.13 985.498 393.625 980.85 394.188L980.245 402L968.204 401.104L968.788 393.479C963.703 392.344 958.947 390.056 954.89 386.792L949.256 391.583L941.388 382.396L946.96 377.688C944.032 372.876 942.346 367.414 942.056 361.792L933.938 361.167L934.836 349.146L943.454 349.792C944.878 345.085 947.305 340.743 950.57 337.062L946.125 331.708L955.474 324L960.003 329.5C964.274 327.095 969.029 325.672 973.922 325.333L974.548 317L986.589 317.896L985.942 326.375C990.749 327.714 995.207 330.081 999.005 333.312L1005.62 327.708L1013.47 336.896L1006.79 342.583C1008.96 346.339 1010.37 350.477 1010.96 354.771L1019 355.354ZM956.3 358.243C955.445 369.436 963.837 379.203 975.049 380.062C980.443 380.487 985.784 378.747 989.889 375.228C993.994 371.708 996.524 366.7 996.919 361.312C997.761 350.119 989.358 340.361 978.146 339.514C966.934 338.666 957.155 347.05 956.3 358.243Z" fill="#505F98"/>
<path d="M1081.04 522.513V529H592.702V522.513C592.691 517.614 594.617 512.912 598.056 509.44C601.495 505.968 606.166 504.011 611.041 504H1062.7C1067.58 504.006 1072.25 505.961 1075.69 509.434C1079.13 512.907 1081.06 517.613 1081.04 522.513V522.513Z" fill="url(#paint9_linear_0_29)"/>
<rect x="602.709" y="561" width="47.0326" height="227" fill="url(#paint10_linear_0_29)"/>
<rect x="720.791" y="577" width="221.153" height="209" fill="url(#paint11_linear_0_29)"/>
<rect x="771.826" y="675" width="7.00485" height="9" fill="url(#paint12_linear_0_29)"/>
<rect x="771.826" y="633" width="7.00485" height="9" fill="url(#paint13_linear_0_29)"/>
<rect x="676.76" y="675" width="7.00485" height="9" fill="url(#paint14_linear_0_29)"/>
<rect x="676.76" y="633" width="7.00485" height="9" fill="url(#paint15_linear_0_29)"/>
<rect x="771.826" y="588" width="7.00485" height="9" fill="url(#paint16_linear_0_29)"/>
<rect x="677.761" y="588" width="7.00485" height="9" fill="url(#paint17_linear_0_29)"/>
<rect x="725.794" y="588" width="7.00485" height="9" fill="url(#paint18_linear_0_29)"/>
<rect x="725.794" y="675" width="7.00485" height="9" fill="url(#paint19_linear_0_29)"/>
<path fill-rule="evenodd" clip-rule="evenodd" d="M689.769 673H767.823V600H689.769V673ZM759.961 665.282H697.631V607.656H759.961V665.282Z" fill="#505F98"/>
<path fill-rule="evenodd" clip-rule="evenodd" d="M689.769 673H767.823V600H689.769V673ZM759.961 665.282H697.631V607.656H759.961V665.282Z" fill="url(#paint20_linear_0_29)"/>
<rect x="973.966" y="541" width="100.069" height="100" fill="url(#paint21_linear_0_29)"/>
<rect x="973.966" y="651" width="100.069" height="100" fill="url(#paint22_linear_0_29)"/>
<rect opacity="0.65" x="602.709" y="560" width="47.0326" height="13" fill="url(#paint23_linear_0_29)"/>
<path d="M399.673 491.827L604.801 327.293L652.914 387.118L447.785 551.652L399.673 491.827Z" fill="white"/>
<path d="M428.396 496.455L453.464 476.235L486.046 516.522L460.979 536.742L428.396 496.455Z" fill="#505F98"/>
<path d="M428.396 496.455L453.464 476.235L486.046 516.522L460.979 536.742L428.396 496.455Z" fill="url(#paint24_linear_0_29)"/>
<path d="M452.014 476.689L477.046 456.56L509.481 496.79L484.449 516.919L452.014 476.689Z" fill="#505F98"/>
<path d="M452.014 476.689L477.046 456.56L509.481 496.79L484.449 516.919L452.014 476.689Z" fill="url(#paint25_linear_0_29)"/>
<path d="M476.958 456.761L501.99 436.633L534.425 476.863L509.393 496.991L476.958 456.761Z" fill="#505F98"/>
<path d="M476.958 456.761L501.99 436.633L534.425 476.863L509.393 496.991L476.958 456.761Z" fill="url(#paint26_linear_0_29)"/>
<path d="M501.886 436.847L526.918 416.718L559.353 456.948L534.321 477.077L501.886 436.847Z" fill="#505F98"/>
<path d="M501.886 436.847L526.918 416.718L559.353 456.948L534.321 477.077L501.886 436.847Z" fill="url(#paint27_linear_0_29)"/>
<path d="M528.006 416.389L553.073 396.169L585.656 436.456L560.588 456.676L528.006 416.389Z" fill="#505F98"/>
<path d="M553.086 395.99L578.153 375.77L610.736 416.057L585.668 436.277L553.086 395.99Z" fill="#505F98"/>
<path d="M576.693 377.051L601.726 356.923L634.161 397.153L609.128 417.282L576.693 377.051Z" fill="#505F98"/>
<path d="M606.712 420.218L585.613 437L553.675 396.782L574.774 380L606.712 420.218V420.218Z" fill="url(#paint28_linear_0_29)"/>
<path d="M573.736 379.648L598.768 359.519L631.203 399.749L606.171 419.878L573.736 379.648Z" fill="url(#paint29_linear_0_29)"/>
<path d="M522.653 501.15V624H501.639V501.15C501.639 496.61 504.457 492.57 508.657 491.089V478.825C508.657 476.712 510.333 475 512.4 475C514.468 475 516.144 476.712 516.144 478.825V491.297C520.063 492.935 522.632 496.823 522.653 501.15V501.15Z" fill="#505F98"/>
<path d="M522.653 501.15V624H501.639V501.15C501.639 496.61 504.457 492.57 508.657 491.089V478.825C508.657 476.712 510.333 475 512.4 475C514.468 475 516.144 476.712 516.144 478.825V491.297C520.063 492.935 522.632 496.823 522.653 501.15V501.15Z" fill="url(#paint30_linear_0_29)"/>
<rect x="488.63" y="579" width="50.0346" height="9" rx="2.245" fill="#505F98"/>
<path d="M513.336 661V661C504.763 661 497.636 648.185 497.636 639.634V583H528.658V639.634C528.658 648.185 521.887 661 513.336 661Z" fill="#505F98"/>
<rect x="488.63" y="579" width="50.0346" height="9" rx="2.245" fill="url(#paint31_linear_0_29)"/>
<path d="M513.336 661V661C504.763 661 497.636 648.366 497.636 639.937V588H528.658V639.937C528.658 648.366 521.887 661 513.336 661Z" fill="url(#paint32_linear_0_29)"/>
<path d="M713.428 721C712.754 717.436 712.329 712.39 713.623 712.043C716.351 711.275 713.428 721 713.428 721Z" fill="#28353D"/>
<path d="M856.687 916.507C856.201 929.102 846.438 975.388 846.121 988.004C846.121 992.202 847.241 998.647 845.889 1002.7C843.1 1011.28 833.211 1010.11 831.922 1005.05L831.436 1002.53C826.85 978.012 834.225 950.198 831.436 918.186C829.766 898.643 821.99 860.963 816.898 860.711C814.214 860.711 752.957 989.851 747.632 997.807C745.011 1001.82 737.637 1001.19 734.066 1004.42C730.495 1007.65 763.818 906.515 777.785 853.07C781.043 842.039 783.166 830.709 784.124 819.252C784.505 812.64 782.37 810.415 788.477 808.463C792.703 807.119 798.556 807.497 803.078 807.182C808.002 806.804 853.792 806.72 853.792 809.953C853.348 827.502 857.87 887.412 856.687 916.507Z" fill="#606161"/>
<path d="M856.687 916.507C856.201 929.102 846.438 975.388 846.121 988.004C846.121 992.202 847.241 998.647 845.889 1002.7C843.1 1011.28 833.211 1010.11 831.922 1005.05L831.436 1002.53C826.85 978.012 834.225 950.198 831.436 918.186C829.766 898.643 821.99 860.963 816.898 860.711C814.214 860.711 752.957 989.851 747.632 997.807C745.011 1001.82 737.637 1001.19 734.066 1004.42C730.495 1007.65 763.818 906.515 777.785 853.07C781.043 842.039 783.166 830.709 784.124 819.252C784.505 812.64 782.37 810.415 788.477 808.463C792.703 807.119 798.556 807.497 803.078 807.182C808.002 806.804 853.792 806.72 853.792 809.953C853.348 827.502 857.87 887.412 856.687 916.507Z" fill="url(#paint33_linear_0_29)"/>
<path d="M802.614 648.148C802.229 644.163 800.346 642 798.506 642C796.666 642 795.533 644.12 795.918 648.148C796.005 651.122 798.249 653.597 801.223 654C803.084 654 803.02 652.134 802.614 648.148Z" fill="#FFCD9C"/>
<path d="M835.008 648.159C835.258 644.166 837.094 642 838.994 642C840.893 642 842.124 644.124 841.832 648.159C841.805 651.173 839.56 653.687 836.615 654C834.736 654 834.715 652.152 835.008 648.159Z" fill="#FFCD9C"/>
<path d="M838.732 665.672C838.473 667.777 829.558 677 819.413 677C809.267 677 800.892 668.577 799.122 665.208C797.352 661.839 804.475 618.505 808.598 614.884C812.721 611.262 829.429 613.641 830.832 615.558C834.199 620.085 839.833 657.27 838.732 665.672Z" fill="#F4AD7D"/>
<path d="M834.538 632.977C833.159 633.639 827.743 619.842 826.607 617.525C825.472 615.208 825.654 612.829 827.033 612.167C828.413 611.505 830.441 612.871 831.577 615.167C832.713 617.463 835.897 632.336 834.538 632.977Z" fill="#FFCD9C"/>
<path d="M804.168 631.987C802.737 631.501 806.525 617.179 807.351 614.703C808.177 612.228 810.031 610.599 811.381 611.086C812.731 611.573 813.295 613.984 812.469 616.481C811.643 618.977 805.518 632.474 804.168 631.987Z" fill="#FFCD9C"/>
<path d="M809.845 664H831.608L834.87 684.622C823.014 691.005 816.101 690.301 806.85 683.214L809.845 664Z" fill="#F4AD7D"/>
<path d="M818.859 668.13C818.859 667.75 819.764 667.43 820.86 667.43C821.956 667.43 822.861 667.75 822.861 668.13C822.861 668.51 821.98 668.57 820.86 668.57C819.74 668.57 818.859 668.53 818.859 668.13Z" fill="#F4AD7D"/>
<path d="M839.892 658.808C840.716 653.894 842.06 618.708 838.764 614.051C835.469 609.394 815.741 606.381 812.749 607.108C806.05 608.731 807.221 613.517 807.221 613.517C805.23 613.547 803.28 614.084 801.563 615.076C799.264 616.615 794.43 638.79 798.289 655.56C800.023 663.102 806.852 669.66 818.646 669.981C833.171 670.365 838.895 664.896 839.892 658.808Z" fill="#606161"/>
<path d="M812.831 608.762C814.39 607.448 816.41 606.828 818.43 607.041C824.563 607.008 830.647 608.14 836.365 610.376C839.535 611.488 842.414 613.311 844.785 615.708C847.172 618.173 848.271 621.627 847.753 625.034C846.7 630.047 841.438 633.148 839.712 637.97C838.322 641.837 839.312 645.575 839.354 649.463C839.382 652.606 839.156 655.746 838.68 658.852C837.712 664.906 832.176 670.344 817.967 669.983C806.516 669.664 799.885 663.143 798.201 655.644C795.921 643.198 796.519 630.389 799.948 618.215C806.12 619.648 812.434 620.361 818.767 620.339C825.482 620.395 832.178 619.611 838.701 618.002C839.817 624.503 839.796 637.524 839.438 647.253" fill="#606161"/>
<path d="M777.702 680.954C774.268 681.241 770.96 682.384 768.077 684.28C763.139 688.171 762.764 695.43 762.847 701.748C762.678 710.501 763.285 719.252 764.66 727.897C766.139 735.826 768.827 743.441 771.035 751.202C774.516 763.831 776.344 776.862 776.473 789.966C776.473 797.162 776.348 805.07 780.827 810.697C785.723 816.806 794.39 817.998 802.182 818.438C813.245 819.086 824.349 819.17 835.412 818.709C842.829 818.375 850.725 817.643 856.6 813.082C861.288 809.442 872.267 686.288 863.746 683.171C855.225 680.054 846.058 679.259 837.016 678.506C816.745 676.791 797.661 675.431 777.702 680.954Z" fill="#505F98"/>
<path d="M841.521 936.291C840.435 950.255 837.843 1001 837.843 1001L831.238 1000.77C826.702 976.39 833.997 948.732 831.238 916.899C829.586 897.465 821.895 859.996 816.857 859.746C818.362 847.221 826.827 849.1 826.827 849.1C832.984 858.294 838.294 868.026 842.692 878.178C847.729 891.37 842.629 922.263 841.521 936.291Z" fill="url(#paint34_linear_0_29)"/>
<path d="M717.164 1002.02C716.133 1002.79 715.35 1003.83 714.912 1005.03C714.678 1006.01 714.773 1007.04 715.183 1007.97C716.35 1010.33 718.56 1012.02 721.168 1012.55C723.744 1013.04 726.383 1013.13 728.987 1012.82L737.328 1012.26C739.45 1012.21 741.555 1011.87 743.583 1011.26C745.614 1010.63 747.289 1009.2 748.212 1007.31C748.704 1005.92 748.895 1004.44 748.775 1002.97C748.775 996.164 746.357 990.634 738.808 992.299C730.902 993.765 723.474 997.102 717.164 1002.02V1002.02Z" fill="#505F98"/>
<path d="M855.703 1005.06C856.65 1005.76 857.369 1006.71 857.77 1007.8C857.984 1008.68 857.9 1009.61 857.53 1010.45C856.467 1012.58 854.438 1014.11 852.047 1014.58C849.69 1015.04 847.273 1015.12 844.888 1014.83L837.316 1014.33C835.389 1014.28 833.478 1013.98 831.636 1013.43C829.779 1012.86 828.25 1011.57 827.415 1009.85C826.967 1008.59 826.789 1007.26 826.893 1005.93C826.893 999.785 829.069 994.72 836.01 996.288C843.206 997.619 849.964 1000.63 855.703 1005.06V1005.06Z" fill="#505F98"/>
<path d="M864.891 683C864.891 683 897.606 702.163 907.432 726.389C917.257 750.614 875.252 809 875.252 809L866.263 799.814C866.263 799.814 888.188 755.759 884.799 744.74C881.409 733.721 868.13 723.452 868.13 723.452L864.891 683Z" fill="#505F98"/>
<path d="M771.826 720.859C771.826 720.859 726.338 741.24 707.853 731.238C689.368 721.237 708.398 671 708.398 671L720.777 675.202C720.777 675.202 710.433 700.815 722.267 704.618C734.101 708.421 769.56 683.438 769.56 683.438L771.826 720.859Z" fill="#505F98"/>
<path d="M857.466 807.976C856.158 808.826 855.097 809.968 854.381 811.297C853.952 812.425 853.797 813.629 853.928 814.819C853.849 817.709 855.163 820.479 857.509 822.367C859.158 823.25 861.005 823.76 862.903 823.857C864.066 824.048 865.256 824.048 866.419 823.857C867.606 823.646 868.597 822.888 869.051 821.844C869.206 821.183 869.271 820.507 869.245 819.831C869.396 816.51 871.899 813.793 873.97 811.076C874.47 810.551 874.793 809.9 874.897 809.204C874.885 808.434 874.597 807.69 874.078 807.091C872.675 805.199 869.202 801.717 866.419 802.018C863.636 802.32 859.624 806.326 857.466 807.976Z" fill="#F4AD7D"/>
<path d="M728.585 663.435C729.178 662.611 729.582 661.679 729.772 660.698C729.923 659.683 729.386 658.687 728.431 658.211C726.915 657.647 725.114 659.13 723.62 658.504C723.114 658.235 722.69 657.846 722.389 657.375C720.625 654.945 719.613 652.093 719.467 649.143C719.553 647.571 719.405 645.995 719.028 644.463C718.583 642.886 717 641.849 715.292 642.018C713.886 642.331 713.095 643.689 712.216 644.776C711.338 645.863 709.58 647.158 708.437 648.516C706.487 651.307 705.37 654.55 705.208 657.898C704.592 662.077 704.197 666.861 707.273 669.87C709.646 672.189 716.874 674.927 720.192 673.694C723.861 672.315 726.74 666.444 728.585 663.435Z" fill="#F4AD7D"/>
<defs>
<linearGradient id="paint0_linear_0_29" x1="528.402" y1="577.166" x2="593.156" y2="448.6" gradientUnits="userSpaceOnUse">
<stop stop-color="#010101" stop-opacity="0.01"/>
<stop offset="0.95" stop-color="#010101"/>
</linearGradient>
<linearGradient id="paint1_linear_0_29" x1="583.563" y1="573.365" x2="676.417" y2="391.775" gradientUnits="userSpaceOnUse">
<stop stop-color="#010101" stop-opacity="0.01"/>
<stop offset="0.95" stop-color="#010101"/>
</linearGradient>
<linearGradient id="paint2_linear_0_29" x1="703.545" y1="582.092" x2="840.899" y2="271.948" gradientUnits="userSpaceOnUse">
<stop stop-color="#010101" stop-opacity="0.01"/>
<stop offset="0.95" stop-color="#010101"/>
</linearGradient>
<linearGradient id="paint3_linear_0_29" x1="831.379" y1="598.583" x2="1036.31" y2="151.178" gradientUnits="userSpaceOnUse">
<stop stop-color="#010101" stop-opacity="0.01"/>
<stop offset="0.36" stop-color="#010101" stop-opacity="0.36"/>
<stop offset="0.95" stop-color="#010101"/>
</linearGradient>
<linearGradient id="paint4_linear_0_29" x1="682.726" y1="493.564" x2="799.886" y2="251.969" gradientUnits="userSpaceOnUse">
<stop stop-color="white" stop-opacity="0.01"/>
<stop offset="0.07" stop-color="white" stop-opacity="0.22"/>
<stop offset="0.16" stop-color="white" stop-opacity="0.45"/>
<stop offset="0.25" stop-color="white" stop-opacity="0.65"/>
<stop offset="0.33" stop-color="white" stop-opacity="0.8"/>
<stop offset="0.4" stop-color="white" stop-opacity="0.91"/>
<stop offset="0.46" stop-color="white" stop-opacity="0.98"/>
<stop offset="0.51" stop-color="white"/>
</linearGradient>
<linearGradient id="paint5_linear_0_29" x1="604.65" y1="440.444" x2="668.846" y2="304.555" gradientUnits="userSpaceOnUse">
<stop stop-color="white" stop-opacity="0.01"/>
<stop offset="0.07" stop-color="white" stop-opacity="0.22"/>
<stop offset="0.16" stop-color="white" stop-opacity="0.45"/>
<stop offset="0.25" stop-color="white" stop-opacity="0.65"/>
<stop offset="0.33" stop-color="white" stop-opacity="0.8"/>
<stop offset="0.4" stop-color="white" stop-opacity="0.91"/>
<stop offset="0.46" stop-color="white" stop-opacity="0.98"/>
<stop offset="0.51" stop-color="white"/>
</linearGradient>
<linearGradient id="paint6_linear_0_29" x1="909.972" y1="903.322" x2="920.393" y2="776.584" gradientUnits="userSpaceOnUse">
<stop stop-color="#010101" stop-opacity="0.01"/>
<stop offset="0.95" stop-color="#010101"/>
</linearGradient>
<linearGradient id="paint7_linear_0_29" x1="508.259" y1="440.517" x2="505.544" y2="890.071" gradientUnits="userSpaceOnUse">
<stop stop-color="white" stop-opacity="0.01"/>
<stop offset="0.07" stop-color="white" stop-opacity="0.22"/>
<stop offset="0.16" stop-color="white" stop-opacity="0.45"/>
<stop offset="0.25" stop-color="white" stop-opacity="0.65"/>
<stop offset="0.33" stop-color="white" stop-opacity="0.8"/>
<stop offset="0.4" stop-color="white" stop-opacity="0.91"/>
<stop offset="0.46" stop-color="white" stop-opacity="0.98"/>
<stop offset="0.51" stop-color="white"/>
</linearGradient>
<linearGradient id="paint8_linear_0_29" x1="254.605" y1="878.073" x2="254.705" y2="1020.31" gradientUnits="userSpaceOnUse">
<stop stop-color="#010101" stop-opacity="0.01"/>
<stop offset="0.95" stop-color="#010101"/>
</linearGradient>
<linearGradient id="paint9_linear_0_29" x1="1407.02" y1="623.966" x2="1441.2" y2="216.855" gradientUnits="userSpaceOnUse">
<stop stop-color="white" stop-opacity="0.01"/>
<stop offset="0.07" stop-color="white" stop-opacity="0.22"/>
<stop offset="0.16" stop-color="white" stop-opacity="0.45"/>
<stop offset="0.25" stop-color="white" stop-opacity="0.65"/>
<stop offset="0.33" stop-color="white" stop-opacity="0.8"/>
<stop offset="0.4" stop-color="white" stop-opacity="0.91"/>
<stop offset="0.46" stop-color="white" stop-opacity="0.98"/>
<stop offset="0.51" stop-color="white"/>
</linearGradient>
<linearGradient id="paint10_linear_0_29" x1="580.138" y1="513.87" x2="718.145" y2="882.142" gradientUnits="userSpaceOnUse">
<stop stop-color="white" stop-opacity="0.01"/>
<stop offset="0.07" stop-color="white" stop-opacity="0.22"/>
<stop offset="0.16" stop-color="white" stop-opacity="0.45"/>
<stop offset="0.25" stop-color="white" stop-opacity="0.65"/>
<stop offset="0.33" stop-color="white" stop-opacity="0.8"/>
<stop offset="0.4" stop-color="white" stop-opacity="0.91"/>
<stop offset="0.46" stop-color="white" stop-opacity="0.98"/>
<stop offset="0.51" stop-color="white"/>
</linearGradient>
<linearGradient id="paint11_linear_0_29" x1="683.668" y1="536.99" x2="680.343" y2="819.698" gradientUnits="userSpaceOnUse">
<stop stop-color="white" stop-opacity="0.01"/>
<stop offset="0.07" stop-color="white" stop-opacity="0.22"/>
<stop offset="0.16" stop-color="white" stop-opacity="0.45"/>
<stop offset="0.25" stop-color="white" stop-opacity="0.65"/>
<stop offset="0.33" stop-color="white" stop-opacity="0.8"/>
<stop offset="0.4" stop-color="white" stop-opacity="0.91"/>
<stop offset="0.46" stop-color="white" stop-opacity="0.98"/>
<stop offset="0.51" stop-color="white"/>
</linearGradient>
<linearGradient id="paint12_linear_0_29" x1="999.503" y1="728.704" x2="1018.69" y2="150.785" gradientUnits="userSpaceOnUse">
<stop stop-color="#010101" stop-opacity="0.01"/>
<stop offset="0.95" stop-color="#010101"/>
</linearGradient>
<linearGradient id="paint13_linear_0_29" x1="998.651" y1="729.045" x2="1017.84" y2="151.125" gradientUnits="userSpaceOnUse">
<stop stop-color="#010101" stop-opacity="0.01"/>
<stop offset="0.95" stop-color="#010101"/>
</linearGradient>
<linearGradient id="paint14_linear_0_29" x1="904.472" y1="726.354" x2="923.688" y2="148.435" gradientUnits="userSpaceOnUse">
<stop stop-color="#010101" stop-opacity="0.01"/>
<stop offset="0.95" stop-color="#010101"/>
</linearGradient>
<linearGradient id="paint15_linear_0_29" x1="903.62" y1="726.694" x2="922.836" y2="148.776" gradientUnits="userSpaceOnUse">
<stop stop-color="#010101" stop-opacity="0.01"/>
<stop offset="0.95" stop-color="#010101"/>
</linearGradient>
<linearGradient id="paint16_linear_0_29" x1="997.712" y1="730.545" x2="1016.93" y2="152.627" gradientUnits="userSpaceOnUse">
<stop stop-color="#010101" stop-opacity="0.01"/>
<stop offset="0.95" stop-color="#010101"/>
</linearGradient>
<linearGradient id="paint17_linear_0_29" x1="903.682" y1="728.236" x2="922.869" y2="150.317" gradientUnits="userSpaceOnUse">
<stop stop-color="#010101" stop-opacity="0.01"/>
<stop offset="0.95" stop-color="#010101"/>
</linearGradient>
<linearGradient id="paint18_linear_0_29" x1="951.672" y1="729.396" x2="970.888" y2="151.499" gradientUnits="userSpaceOnUse">
<stop stop-color="#010101" stop-opacity="0.01"/>
<stop offset="0.95" stop-color="#010101"/>
</linearGradient>
<linearGradient id="paint19_linear_0_29" x1="953.488" y1="726.843" x2="972.704" y2="148.925" gradientUnits="userSpaceOnUse">
<stop stop-color="#010101" stop-opacity="0.01"/>
<stop offset="0.95" stop-color="#010101"/>
</linearGradient>
<linearGradient id="paint20_linear_0_29" x1="608.41" y1="741.399" x2="840.643" y2="958.094" gradientUnits="userSpaceOnUse">
<stop stop-color="white" stop-opacity="0.01"/>
<stop offset="0.07" stop-color="white" stop-opacity="0.22"/>
<stop offset="0.16" stop-color="white" stop-opacity="0.45"/>
<stop offset="0.25" stop-color="white" stop-opacity="0.65"/>
<stop offset="0.33" stop-color="white" stop-opacity="0.8"/>
<stop offset="0.4" stop-color="white" stop-opacity="0.91"/>
<stop offset="0.46" stop-color="white" stop-opacity="0.98"/>
<stop offset="0.51" stop-color="white"/>
</linearGradient>
<linearGradient id="paint21_linear_0_29" x1="957.277" y1="521.864" x2="955.492" y2="657.026" gradientUnits="userSpaceOnUse">
<stop stop-color="white" stop-opacity="0.01"/>
<stop offset="0.07" stop-color="white" stop-opacity="0.22"/>
<stop offset="0.16" stop-color="white" stop-opacity="0.45"/>
<stop offset="0.25" stop-color="white" stop-opacity="0.65"/>
<stop offset="0.33" stop-color="white" stop-opacity="0.8"/>
<stop offset="0.4" stop-color="white" stop-opacity="0.91"/>
<stop offset="0.46" stop-color="white" stop-opacity="0.98"/>
<stop offset="0.51" stop-color="white"/>
</linearGradient>
<linearGradient id="paint22_linear_0_29" x1="957.277" y1="631.864" x2="955.492" y2="767.026" gradientUnits="userSpaceOnUse">
<stop stop-color="white" stop-opacity="0.01"/>
<stop offset="0.07" stop-color="white" stop-opacity="0.22"/>
<stop offset="0.16" stop-color="white" stop-opacity="0.45"/>
<stop offset="0.25" stop-color="white" stop-opacity="0.65"/>
<stop offset="0.33" stop-color="white" stop-opacity="0.8"/>
<stop offset="0.4" stop-color="white" stop-opacity="0.91"/>
<stop offset="0.46" stop-color="white" stop-opacity="0.98"/>
<stop offset="0.51" stop-color="white"/>
</linearGradient>
<linearGradient id="paint23_linear_0_29" x1="593.437" y1="557.281" x2="593.42" y2="575.481" gradientUnits="userSpaceOnUse">
<stop stop-color="white" stop-opacity="0.01"/>
<stop offset="0.07" stop-color="white" stop-opacity="0.22"/>
<stop offset="0.16" stop-color="white" stop-opacity="0.45"/>
<stop offset="0.25" stop-color="white" stop-opacity="0.65"/>
<stop offset="0.33" stop-color="white" stop-opacity="0.8"/>
<stop offset="0.4" stop-color="white" stop-opacity="0.91"/>
<stop offset="0.46" stop-color="white" stop-opacity="0.98"/>
<stop offset="0.51" stop-color="white"/>
</linearGradient>
<linearGradient id="paint24_linear_0_29" x1="512.737" y1="610.052" x2="626.168" y2="520.635" gradientUnits="userSpaceOnUse">
<stop stop-color="#010101" stop-opacity="0.01"/>
<stop offset="0.95" stop-color="#010101"/>
</linearGradient>
<linearGradient id="paint25_linear_0_29" x1="562.575" y1="629.988" x2="723.852" y2="504.867" gradientUnits="userSpaceOnUse">
<stop stop-color="#010101" stop-opacity="0.01"/>
<stop offset="0.95" stop-color="#010101"/>
</linearGradient>
<linearGradient id="paint26_linear_0_29" x1="667.519" y1="688.751" x2="923.684" y2="466.028" gradientUnits="userSpaceOnUse">
<stop stop-color="#010101" stop-opacity="0.01"/>
<stop offset="0.95" stop-color="#010101"/>
</linearGradient>
<linearGradient id="paint27_linear_0_29" x1="776.279" y1="757.865" x2="1151.96" y2="439.45" gradientUnits="userSpaceOnUse">
<stop stop-color="#010101" stop-opacity="0.01"/>
<stop offset="0.36" stop-color="#010101" stop-opacity="0.36"/>
<stop offset="0.95" stop-color="#010101"/>
</linearGradient>
<linearGradient id="paint28_linear_0_29" x1="624.537" y1="520.751" x2="807.477" y2="389.322" gradientUnits="userSpaceOnUse">
<stop stop-color="white" stop-opacity="0.01"/>
<stop offset="0.07" stop-color="white" stop-opacity="0.22"/>
<stop offset="0.16" stop-color="white" stop-opacity="0.45"/>
<stop offset="0.25" stop-color="white" stop-opacity="0.65"/>
<stop offset="0.33" stop-color="white" stop-opacity="0.8"/>
<stop offset="0.4" stop-color="white" stop-opacity="0.91"/>
<stop offset="0.46" stop-color="white" stop-opacity="0.98"/>
<stop offset="0.51" stop-color="white"/>
</linearGradient>
<linearGradient id="paint29_linear_0_29" x1="638.151" y1="518.517" x2="754.009" y2="422.658" gradientUnits="userSpaceOnUse">
<stop stop-color="white" stop-opacity="0.01"/>
<stop offset="0.07" stop-color="white" stop-opacity="0.22"/>
<stop offset="0.16" stop-color="white" stop-opacity="0.45"/>
<stop offset="0.25" stop-color="white" stop-opacity="0.65"/>
<stop offset="0.33" stop-color="white" stop-opacity="0.8"/>
<stop offset="0.4" stop-color="white" stop-opacity="0.91"/>
<stop offset="0.46" stop-color="white" stop-opacity="0.98"/>
<stop offset="0.51" stop-color="white"/>
</linearGradient>
<linearGradient id="paint30_linear_0_29" x1="503.738" y1="684.745" x2="541.923" y2="684.767" gradientUnits="userSpaceOnUse">
<stop stop-color="white" stop-opacity="0.01"/>
<stop offset="0.07" stop-color="white" stop-opacity="0.22"/>
<stop offset="0.16" stop-color="white" stop-opacity="0.45"/>
<stop offset="0.25" stop-color="white" stop-opacity="0.65"/>
<stop offset="0.33" stop-color="white" stop-opacity="0.8"/>
<stop offset="0.4" stop-color="white" stop-opacity="0.91"/>
<stop offset="0.46" stop-color="white" stop-opacity="0.98"/>
<stop offset="0.51" stop-color="white"/>
</linearGradient>
<linearGradient id="paint31_linear_0_29" x1="430.446" y1="587.2" x2="442.097" y2="625.932" gradientUnits="userSpaceOnUse">
<stop stop-color="#010101" stop-opacity="0.01"/>
<stop offset="0.95" stop-color="#010101"/>
</linearGradient>
<linearGradient id="paint32_linear_0_29" x1="455.244" y1="735.933" x2="556.146" y2="737.976" gradientUnits="userSpaceOnUse">
<stop stop-color="#010101" stop-opacity="0.01"/>
<stop offset="0.95" stop-color="#010101"/>
</linearGradient>
<linearGradient id="paint33_linear_0_29" x1="858.015" y1="893.512" x2="761.922" y2="728.732" gradientUnits="userSpaceOnUse">
<stop stop-color="#010101" stop-opacity="0.01"/>
<stop offset="0.95" stop-color="#010101"/>
</linearGradient>
<linearGradient id="paint34_linear_0_29" x1="859.037" y1="431.892" x2="686.151" y2="436.761" gradientUnits="userSpaceOnUse">
<stop stop-color="#010101" stop-opacity="0.01"/>
<stop offset="0.95" stop-color="#010101"/>
</linearGradient>
</defs>
</svg>
